<mxfile host="Electron" modified="2024-02-11T23:35:16.035Z" agent="Mozilla/5.0 (X11; Linux x86_64) AppleWebKit/537.36 (KHTML, like Gecko) draw.io/21.2.8 Chrome/112.0.5615.165 Electron/24.2.0 Safari/537.36" etag="F7_H6MAo23Evk0ccowA7" version="21.2.8" type="device">
  <diagram name="Seite-1" id="1DdBGCkQfgjVxy8bUu3-">
    <mxGraphModel dx="2920" dy="1813" grid="1" gridSize="10" guides="1" tooltips="1" connect="1" arrows="1" fold="1" page="1" pageScale="1" pageWidth="827" pageHeight="1169" math="0" shadow="0">
      <root>
        <mxCell id="0" />
        <mxCell id="1" parent="0" />
        <mxCell id="4AoaGfoRSB3ki615u3ol-68" value="p_automat" style="rounded=0;whiteSpace=wrap;html=1;" parent="1" vertex="1">
          <mxGeometry x="1810" y="1230" width="290" height="140" as="geometry" />
        </mxCell>
        <mxCell id="n0XynNMwgZ88w3417hK9-1" value="entity bootloader_top is&#xa; port (&#xa;  i_Clk             : in std_logic;&#xa;  i_rxd             : in std_logic;&#xa;  i_program_counter : in std_logic_vector(15 downto 0);&#xa;  i_cpu_step_fin    : in std_logic;&#xa;  --o_output  : out std_logic_vector(24 - 1 downto 0 );&#xa;  o_txd              : out std_logic;&#xa;  o_svnr_cpu_en      : out std_logic;&#xa;  o_svnr_ram_address : out std_logic_vector(15 downto 0);&#xa;  o_svnr_ram_data_in : out std_logic_vector(15 downto 0);&#xa;  o_svnr_wnr         : out std_logic;&#xa;  o_svnr_addrstrb    : out std_logic;&#xa;  o_svnr_run         : out std_logic;&#xa;  o_svnr_reset    : out std_logic&#xa; );&#xa;end bootloader_top;" style="text;whiteSpace=wrap;html=1;" parent="1" vertex="1">
          <mxGeometry x="487" width="340" height="270" as="geometry" />
        </mxCell>
        <mxCell id="n0XynNMwgZ88w3417hK9-3" value="i_Clk" style="text;html=1;align=left;verticalAlign=middle;resizable=0;points=[];autosize=1;strokeColor=none;fillColor=none;" parent="1" vertex="1">
          <mxGeometry x="20" y="400" width="50" height="30" as="geometry" />
        </mxCell>
        <mxCell id="n0XynNMwgZ88w3417hK9-4" value="i_rxd" style="text;html=1;align=left;verticalAlign=middle;resizable=0;points=[];autosize=1;strokeColor=none;fillColor=none;" parent="1" vertex="1">
          <mxGeometry x="20" y="430" width="50" height="30" as="geometry" />
        </mxCell>
        <mxCell id="n0XynNMwgZ88w3417hK9-5" value="i_program_counter" style="text;html=1;align=left;verticalAlign=middle;resizable=0;points=[];autosize=1;strokeColor=none;fillColor=none;" parent="1" vertex="1">
          <mxGeometry x="20" y="460" width="120" height="30" as="geometry" />
        </mxCell>
        <mxCell id="n0XynNMwgZ88w3417hK9-9" value="bootloader_top" style="text;html=1;strokeColor=none;fillColor=none;align=center;verticalAlign=middle;whiteSpace=wrap;rounded=0;" parent="1" vertex="1">
          <mxGeometry x="190" y="225" width="80" height="30" as="geometry" />
        </mxCell>
        <mxCell id="n0XynNMwgZ88w3417hK9-14" value="i_cpu_step_fin" style="text;html=1;align=left;verticalAlign=middle;resizable=0;points=[];autosize=1;strokeColor=none;fillColor=none;" parent="1" vertex="1">
          <mxGeometry x="20" y="490" width="100" height="30" as="geometry" />
        </mxCell>
        <mxCell id="U2cvYLdAaLWoxU3sf1OA-3" value="" style="rounded=0;whiteSpace=wrap;html=1;" parent="1" vertex="1">
          <mxGeometry x="247" y="445" width="240" height="90" as="geometry" />
        </mxCell>
        <mxCell id="U2cvYLdAaLWoxU3sf1OA-4" value="i_Clk" style="text;html=1;align=left;verticalAlign=middle;resizable=0;points=[];autosize=1;strokeColor=none;fillColor=none;" parent="1" vertex="1">
          <mxGeometry x="247" y="445" width="50" height="30" as="geometry" />
        </mxCell>
        <mxCell id="U2cvYLdAaLWoxU3sf1OA-5" value="i_RX_Serial" style="text;html=1;align=left;verticalAlign=middle;resizable=0;points=[];autosize=1;strokeColor=none;fillColor=none;" parent="1" vertex="1">
          <mxGeometry x="247" y="505" width="90" height="30" as="geometry" />
        </mxCell>
        <mxCell id="U2cvYLdAaLWoxU3sf1OA-6" value="o_RX_DV" style="text;html=1;align=right;verticalAlign=middle;resizable=0;points=[];autosize=1;strokeColor=none;fillColor=none;" parent="1" vertex="1">
          <mxGeometry x="407" y="445" width="80" height="30" as="geometry" />
        </mxCell>
        <mxCell id="U2cvYLdAaLWoxU3sf1OA-7" value="o_RX_Byte" style="text;html=1;align=right;verticalAlign=middle;resizable=0;points=[];autosize=1;strokeColor=none;fillColor=none;" parent="1" vertex="1">
          <mxGeometry x="407" y="505" width="80" height="30" as="geometry" />
        </mxCell>
        <mxCell id="U2cvYLdAaLWoxU3sf1OA-8" value="UART_RX" style="text;html=1;strokeColor=none;fillColor=none;align=center;verticalAlign=middle;whiteSpace=wrap;rounded=0;" parent="1" vertex="1">
          <mxGeometry x="337" y="475" width="60" height="30" as="geometry" />
        </mxCell>
        <mxCell id="U2cvYLdAaLWoxU3sf1OA-9" value="" style="endArrow=classic;html=1;rounded=0;exitX=1.027;exitY=0.656;exitDx=0;exitDy=0;exitPerimeter=0;entryX=0.04;entryY=0.533;entryDx=0;entryDy=0;entryPerimeter=0;" parent="1" source="n0XynNMwgZ88w3417hK9-3" target="U2cvYLdAaLWoxU3sf1OA-4" edge="1">
          <mxGeometry width="50" height="50" relative="1" as="geometry">
            <mxPoint x="80" y="420" as="sourcePoint" />
            <mxPoint x="240" y="416" as="targetPoint" />
            <Array as="points">
              <mxPoint x="230" y="420" />
              <mxPoint x="230" y="460" />
            </Array>
          </mxGeometry>
        </mxCell>
        <mxCell id="U2cvYLdAaLWoxU3sf1OA-10" value="" style="endArrow=classic;html=1;rounded=0;exitX=1.08;exitY=0.567;exitDx=0;exitDy=0;exitPerimeter=0;entryX=0.033;entryY=0.5;entryDx=0;entryDy=0;entryPerimeter=0;" parent="1" source="n0XynNMwgZ88w3417hK9-4" target="U2cvYLdAaLWoxU3sf1OA-5" edge="1">
          <mxGeometry width="50" height="50" relative="1" as="geometry">
            <mxPoint x="390" y="590" as="sourcePoint" />
            <mxPoint x="244" y="530" as="targetPoint" />
            <Array as="points">
              <mxPoint x="220" y="450" />
              <mxPoint x="220" y="520" />
            </Array>
          </mxGeometry>
        </mxCell>
        <mxCell id="U2cvYLdAaLWoxU3sf1OA-23" value="" style="rounded=0;whiteSpace=wrap;html=1;" parent="1" vertex="1">
          <mxGeometry x="540" y="460" width="120" height="130" as="geometry" />
        </mxCell>
        <mxCell id="U2cvYLdAaLWoxU3sf1OA-24" value="w_RX_DV" style="text;html=1;strokeColor=none;fillColor=none;align=center;verticalAlign=middle;whiteSpace=wrap;rounded=0;" parent="1" vertex="1">
          <mxGeometry x="540" y="460" width="60" height="30" as="geometry" />
        </mxCell>
        <mxCell id="U2cvYLdAaLWoxU3sf1OA-26" value="AND" style="text;html=1;strokeColor=none;fillColor=none;align=center;verticalAlign=middle;whiteSpace=wrap;rounded=0;" parent="1" vertex="1">
          <mxGeometry x="540" y="500" width="60" height="30" as="geometry" />
        </mxCell>
        <mxCell id="U2cvYLdAaLWoxU3sf1OA-27" value="NOT FULL" style="text;html=1;strokeColor=none;fillColor=none;align=center;verticalAlign=middle;whiteSpace=wrap;rounded=0;" parent="1" vertex="1">
          <mxGeometry x="540" y="540" width="60" height="30" as="geometry" />
        </mxCell>
        <mxCell id="U2cvYLdAaLWoxU3sf1OA-28" value="" style="endArrow=classic;html=1;rounded=0;exitX=0.988;exitY=0.467;exitDx=0;exitDy=0;exitPerimeter=0;entryX=0;entryY=0.5;entryDx=0;entryDy=0;" parent="1" source="U2cvYLdAaLWoxU3sf1OA-6" target="U2cvYLdAaLWoxU3sf1OA-24" edge="1">
          <mxGeometry width="50" height="50" relative="1" as="geometry">
            <mxPoint x="610" y="670" as="sourcePoint" />
            <mxPoint x="660" y="620" as="targetPoint" />
            <Array as="points">
              <mxPoint x="520" y="460" />
              <mxPoint x="520" y="475" />
            </Array>
          </mxGeometry>
        </mxCell>
        <mxCell id="U2cvYLdAaLWoxU3sf1OA-29" value="r_wr_en" style="text;html=1;strokeColor=none;fillColor=none;align=center;verticalAlign=middle;whiteSpace=wrap;rounded=0;" parent="1" vertex="1">
          <mxGeometry x="600" y="505" width="60" height="30" as="geometry" />
        </mxCell>
        <mxCell id="U2cvYLdAaLWoxU3sf1OA-30" value="" style="endArrow=classic;html=1;rounded=0;exitX=1.04;exitY=0.5;exitDx=0;exitDy=0;exitPerimeter=0;entryX=0;entryY=0.75;entryDx=0;entryDy=0;" parent="1" target="U2cvYLdAaLWoxU3sf1OA-23" edge="1">
          <mxGeometry width="50" height="50" relative="1" as="geometry">
            <mxPoint x="962" y="455" as="sourcePoint" />
            <mxPoint x="660" y="620" as="targetPoint" />
            <Array as="points">
              <mxPoint x="1040" y="455" />
              <mxPoint x="1040" y="680" />
              <mxPoint x="480" y="680" />
              <mxPoint x="480" y="560" />
            </Array>
          </mxGeometry>
        </mxCell>
        <mxCell id="U2cvYLdAaLWoxU3sf1OA-31" value="" style="endArrow=classic;html=1;rounded=0;exitX=1;exitY=0.5;exitDx=0;exitDy=0;entryX=-0.029;entryY=0.6;entryDx=0;entryDy=0;entryPerimeter=0;" parent="1" source="U2cvYLdAaLWoxU3sf1OA-29" edge="1">
          <mxGeometry width="50" height="50" relative="1" as="geometry">
            <mxPoint x="610" y="670" as="sourcePoint" />
            <mxPoint x="717.9699999999998" y="518" as="targetPoint" />
          </mxGeometry>
        </mxCell>
        <mxCell id="U2cvYLdAaLWoxU3sf1OA-33" value="" style="endArrow=classic;html=1;rounded=0;exitX=1.089;exitY=0.573;exitDx=0;exitDy=0;exitPerimeter=0;entryX=-0.047;entryY=0.437;entryDx=0;entryDy=0;entryPerimeter=0;" parent="1" source="n0XynNMwgZ88w3417hK9-3" edge="1" target="U2cvYLdAaLWoxU3sf1OA-35">
          <mxGeometry width="50" height="50" relative="1" as="geometry">
            <mxPoint x="420" y="550" as="sourcePoint" />
            <mxPoint x="717" y="452.99" as="targetPoint" />
            <Array as="points">
              <mxPoint x="640" y="420" />
              <mxPoint x="640" y="440" />
              <mxPoint x="690" y="440" />
              <mxPoint x="690" y="460" />
            </Array>
          </mxGeometry>
        </mxCell>
        <mxCell id="U2cvYLdAaLWoxU3sf1OA-34" value="" style="rounded=0;whiteSpace=wrap;html=1;" parent="1" vertex="1">
          <mxGeometry x="720" y="445" width="240" height="150" as="geometry" />
        </mxCell>
        <mxCell id="U2cvYLdAaLWoxU3sf1OA-35" value="i_clk" style="text;html=1;align=left;verticalAlign=middle;resizable=0;points=[];autosize=1;strokeColor=none;fillColor=none;" parent="1" vertex="1">
          <mxGeometry x="720" y="445" width="50" height="30" as="geometry" />
        </mxCell>
        <mxCell id="U2cvYLdAaLWoxU3sf1OA-36" value="i_rst_sync" style="text;html=1;align=left;verticalAlign=middle;resizable=0;points=[];autosize=1;strokeColor=none;fillColor=none;" parent="1" vertex="1">
          <mxGeometry x="720" y="475" width="80" height="30" as="geometry" />
        </mxCell>
        <mxCell id="U2cvYLdAaLWoxU3sf1OA-37" value="i_wr_en" style="text;html=1;align=left;verticalAlign=middle;resizable=0;points=[];autosize=1;strokeColor=none;fillColor=none;" parent="1" vertex="1">
          <mxGeometry x="720" y="505" width="70" height="30" as="geometry" />
        </mxCell>
        <mxCell id="U2cvYLdAaLWoxU3sf1OA-38" value="o_full" style="text;html=1;align=right;verticalAlign=middle;resizable=0;points=[];autosize=1;strokeColor=none;fillColor=none;" parent="1" vertex="1">
          <mxGeometry x="910" y="445" width="50" height="30" as="geometry" />
        </mxCell>
        <mxCell id="U2cvYLdAaLWoxU3sf1OA-39" value="o_rd_data" style="text;html=1;align=right;verticalAlign=middle;resizable=0;points=[];autosize=1;strokeColor=none;fillColor=none;" parent="1" vertex="1">
          <mxGeometry x="880" y="475" width="80" height="30" as="geometry" />
        </mxCell>
        <mxCell id="U2cvYLdAaLWoxU3sf1OA-40" value="o_empty" style="text;html=1;align=right;verticalAlign=middle;resizable=0;points=[];autosize=1;strokeColor=none;fillColor=none;" parent="1" vertex="1">
          <mxGeometry x="890" y="505" width="70" height="30" as="geometry" />
        </mxCell>
        <mxCell id="U2cvYLdAaLWoxU3sf1OA-41" value="fifo_3" style="text;html=1;strokeColor=none;fillColor=none;align=center;verticalAlign=middle;whiteSpace=wrap;rounded=0;" parent="1" vertex="1">
          <mxGeometry x="810" y="490" width="60" height="30" as="geometry" />
        </mxCell>
        <mxCell id="U2cvYLdAaLWoxU3sf1OA-42" value="i_rd_en" style="text;html=1;align=left;verticalAlign=middle;resizable=0;points=[];autosize=1;strokeColor=none;fillColor=none;" parent="1" vertex="1">
          <mxGeometry x="720" y="535" width="60" height="30" as="geometry" />
        </mxCell>
        <mxCell id="U2cvYLdAaLWoxU3sf1OA-43" value="o_rd_data_burst" style="text;html=1;align=right;verticalAlign=middle;resizable=0;points=[];autosize=1;strokeColor=none;fillColor=none;" parent="1" vertex="1">
          <mxGeometry x="850" y="535" width="110" height="30" as="geometry" />
        </mxCell>
        <mxCell id="U2cvYLdAaLWoxU3sf1OA-44" value="i_wr_data" style="text;html=1;align=left;verticalAlign=middle;resizable=0;points=[];autosize=1;strokeColor=none;fillColor=none;" parent="1" vertex="1">
          <mxGeometry x="720" y="565" width="80" height="30" as="geometry" />
        </mxCell>
        <mxCell id="U2cvYLdAaLWoxU3sf1OA-45" value="" style="endArrow=classic;html=1;rounded=0;exitX=1.007;exitY=0.457;exitDx=0;exitDy=0;exitPerimeter=0;entryX=0;entryY=0.5;entryDx=0;entryDy=0;entryPerimeter=0;" parent="1" source="U2cvYLdAaLWoxU3sf1OA-7" target="U2cvYLdAaLWoxU3sf1OA-44" edge="1">
          <mxGeometry width="50" height="50" relative="1" as="geometry">
            <mxPoint x="610" y="430" as="sourcePoint" />
            <mxPoint x="660" y="380" as="targetPoint" />
            <Array as="points">
              <mxPoint x="510" y="519" />
              <mxPoint x="510" y="610" />
              <mxPoint x="680" y="610" />
              <mxPoint x="680" y="580" />
            </Array>
          </mxGeometry>
        </mxCell>
        <mxCell id="U2cvYLdAaLWoxU3sf1OA-73" value="" style="group" parent="1" vertex="1" connectable="0">
          <mxGeometry x="1210" y="340" width="340" height="480" as="geometry" />
        </mxCell>
        <mxCell id="U2cvYLdAaLWoxU3sf1OA-46" value="" style="rounded=0;whiteSpace=wrap;html=1;" parent="U2cvYLdAaLWoxU3sf1OA-73" vertex="1">
          <mxGeometry width="340" height="480" as="geometry" />
        </mxCell>
        <mxCell id="U2cvYLdAaLWoxU3sf1OA-47" value="i_rst_sync" style="text;html=1;align=left;verticalAlign=middle;resizable=0;points=[];autosize=1;strokeColor=none;fillColor=none;" parent="U2cvYLdAaLWoxU3sf1OA-73" vertex="1">
          <mxGeometry width="80" height="30" as="geometry" />
        </mxCell>
        <mxCell id="U2cvYLdAaLWoxU3sf1OA-48" value="i_clk" style="text;html=1;align=left;verticalAlign=middle;resizable=0;points=[];autosize=1;strokeColor=none;fillColor=none;" parent="U2cvYLdAaLWoxU3sf1OA-73" vertex="1">
          <mxGeometry y="30" width="50" height="30" as="geometry" />
        </mxCell>
        <mxCell id="U2cvYLdAaLWoxU3sf1OA-49" value="i_rd_data_burst" style="text;html=1;align=left;verticalAlign=middle;resizable=0;points=[];autosize=1;strokeColor=none;fillColor=none;" parent="U2cvYLdAaLWoxU3sf1OA-73" vertex="1">
          <mxGeometry y="60" width="110" height="30" as="geometry" />
        </mxCell>
        <mxCell id="U2cvYLdAaLWoxU3sf1OA-50" value="o_flush" style="text;html=1;align=right;verticalAlign=middle;resizable=0;points=[];autosize=1;strokeColor=none;fillColor=none;" parent="U2cvYLdAaLWoxU3sf1OA-73" vertex="1">
          <mxGeometry x="280" width="60" height="30" as="geometry" />
        </mxCell>
        <mxCell id="U2cvYLdAaLWoxU3sf1OA-51" value="o_data" style="text;html=1;align=right;verticalAlign=middle;resizable=0;points=[];autosize=1;strokeColor=none;fillColor=none;" parent="U2cvYLdAaLWoxU3sf1OA-73" vertex="1">
          <mxGeometry x="280" y="30" width="60" height="30" as="geometry" />
        </mxCell>
        <mxCell id="U2cvYLdAaLWoxU3sf1OA-52" value="o_status" style="text;html=1;align=right;verticalAlign=middle;resizable=0;points=[];autosize=1;strokeColor=none;fillColor=none;" parent="U2cvYLdAaLWoxU3sf1OA-73" vertex="1">
          <mxGeometry x="270" y="60" width="70" height="30" as="geometry" />
        </mxCell>
        <mxCell id="U2cvYLdAaLWoxU3sf1OA-53" value="decoder" style="text;html=1;strokeColor=none;fillColor=none;align=center;verticalAlign=middle;whiteSpace=wrap;rounded=0;" parent="U2cvYLdAaLWoxU3sf1OA-73" vertex="1">
          <mxGeometry x="140" y="230" width="60" height="30" as="geometry" />
        </mxCell>
        <mxCell id="U2cvYLdAaLWoxU3sf1OA-54" value="i_read" style="text;html=1;align=left;verticalAlign=middle;resizable=0;points=[];autosize=1;strokeColor=none;fillColor=none;" parent="U2cvYLdAaLWoxU3sf1OA-73" vertex="1">
          <mxGeometry y="90" width="60" height="30" as="geometry" />
        </mxCell>
        <mxCell id="U2cvYLdAaLWoxU3sf1OA-55" value="i_bp_edit_done" style="text;html=1;align=left;verticalAlign=middle;resizable=0;points=[];autosize=1;strokeColor=none;fillColor=none;" parent="U2cvYLdAaLWoxU3sf1OA-73" vertex="1">
          <mxGeometry y="120" width="110" height="30" as="geometry" />
        </mxCell>
        <mxCell id="U2cvYLdAaLWoxU3sf1OA-56" value="i_cpu_halt" style="text;html=1;align=left;verticalAlign=middle;resizable=0;points=[];autosize=1;strokeColor=none;fillColor=none;" parent="U2cvYLdAaLWoxU3sf1OA-73" vertex="1">
          <mxGeometry y="150" width="80" height="30" as="geometry" />
        </mxCell>
        <mxCell id="U2cvYLdAaLWoxU3sf1OA-57" value="i_halt_address" style="text;html=1;align=left;verticalAlign=middle;resizable=0;points=[];autosize=1;strokeColor=none;fillColor=none;" parent="U2cvYLdAaLWoxU3sf1OA-73" vertex="1">
          <mxGeometry y="180" width="100" height="30" as="geometry" />
        </mxCell>
        <mxCell id="U2cvYLdAaLWoxU3sf1OA-58" value="i_tx_done" style="text;html=1;align=left;verticalAlign=middle;resizable=0;points=[];autosize=1;strokeColor=none;fillColor=none;" parent="U2cvYLdAaLWoxU3sf1OA-73" vertex="1">
          <mxGeometry y="210" width="80" height="30" as="geometry" />
        </mxCell>
        <mxCell id="U2cvYLdAaLWoxU3sf1OA-59" value="o_ram_addr" style="text;html=1;align=right;verticalAlign=middle;resizable=0;points=[];autosize=1;strokeColor=none;fillColor=none;" parent="U2cvYLdAaLWoxU3sf1OA-73" vertex="1">
          <mxGeometry x="250" y="90" width="90" height="30" as="geometry" />
        </mxCell>
        <mxCell id="U2cvYLdAaLWoxU3sf1OA-60" value="o_ram_data" style="text;html=1;align=right;verticalAlign=middle;resizable=0;points=[];autosize=1;strokeColor=none;fillColor=none;" parent="U2cvYLdAaLWoxU3sf1OA-73" vertex="1">
          <mxGeometry x="250" y="120" width="90" height="30" as="geometry" />
        </mxCell>
        <mxCell id="U2cvYLdAaLWoxU3sf1OA-61" value="o_ram_wen" style="text;html=1;align=right;verticalAlign=middle;resizable=0;points=[];autosize=1;strokeColor=none;fillColor=none;" parent="U2cvYLdAaLWoxU3sf1OA-73" vertex="1">
          <mxGeometry x="250" y="150" width="90" height="30" as="geometry" />
        </mxCell>
        <mxCell id="U2cvYLdAaLWoxU3sf1OA-62" value="o_ram_runner_begin" style="text;html=1;align=right;verticalAlign=middle;resizable=0;points=[];autosize=1;strokeColor=none;fillColor=none;" parent="U2cvYLdAaLWoxU3sf1OA-73" vertex="1">
          <mxGeometry x="210" y="180" width="130" height="30" as="geometry" />
        </mxCell>
        <mxCell id="U2cvYLdAaLWoxU3sf1OA-63" value="o_ram_uploading" style="text;html=1;align=right;verticalAlign=middle;resizable=0;points=[];autosize=1;strokeColor=none;fillColor=none;" parent="U2cvYLdAaLWoxU3sf1OA-73" vertex="1">
          <mxGeometry x="220" y="210" width="120" height="30" as="geometry" />
        </mxCell>
        <mxCell id="U2cvYLdAaLWoxU3sf1OA-65" value="o_ram_data_valid" style="text;html=1;align=right;verticalAlign=middle;resizable=0;points=[];autosize=1;strokeColor=none;fillColor=none;" parent="U2cvYLdAaLWoxU3sf1OA-73" vertex="1">
          <mxGeometry x="220" y="270" width="120" height="30" as="geometry" />
        </mxCell>
        <mxCell id="U2cvYLdAaLWoxU3sf1OA-66" value="o_breakpoint_add" style="text;html=1;align=right;verticalAlign=middle;resizable=0;points=[];autosize=1;strokeColor=none;fillColor=none;" parent="U2cvYLdAaLWoxU3sf1OA-73" vertex="1">
          <mxGeometry x="220" y="300" width="120" height="30" as="geometry" />
        </mxCell>
        <mxCell id="U2cvYLdAaLWoxU3sf1OA-67" value="i_runner_done" style="text;html=1;align=left;verticalAlign=middle;resizable=0;points=[];autosize=1;strokeColor=none;fillColor=none;" parent="U2cvYLdAaLWoxU3sf1OA-73" vertex="1">
          <mxGeometry y="240" width="100" height="30" as="geometry" />
        </mxCell>
        <mxCell id="U2cvYLdAaLWoxU3sf1OA-68" value="o_breakpoint_delete" style="text;html=1;align=right;verticalAlign=middle;resizable=0;points=[];autosize=1;strokeColor=none;fillColor=none;" parent="U2cvYLdAaLWoxU3sf1OA-73" vertex="1">
          <mxGeometry x="210" y="330" width="130" height="30" as="geometry" />
        </mxCell>
        <mxCell id="U2cvYLdAaLWoxU3sf1OA-69" value="o_breakpoint_value" style="text;html=1;align=right;verticalAlign=middle;resizable=0;points=[];autosize=1;strokeColor=none;fillColor=none;" parent="U2cvYLdAaLWoxU3sf1OA-73" vertex="1">
          <mxGeometry x="210" y="360" width="130" height="30" as="geometry" />
        </mxCell>
        <mxCell id="U2cvYLdAaLWoxU3sf1OA-70" value="o_cpu_run" style="text;html=1;align=right;verticalAlign=middle;resizable=0;points=[];autosize=1;strokeColor=none;fillColor=none;" parent="U2cvYLdAaLWoxU3sf1OA-73" vertex="1">
          <mxGeometry x="260" y="390" width="80" height="30" as="geometry" />
        </mxCell>
        <mxCell id="U2cvYLdAaLWoxU3sf1OA-71" value="o_svnr_reset" style="text;html=1;align=right;verticalAlign=middle;resizable=0;points=[];autosize=1;strokeColor=none;fillColor=none;" parent="U2cvYLdAaLWoxU3sf1OA-73" vertex="1">
          <mxGeometry x="250" y="420" width="90" height="30" as="geometry" />
        </mxCell>
        <mxCell id="U2cvYLdAaLWoxU3sf1OA-72" value="o_tx_trig" style="text;html=1;align=right;verticalAlign=middle;resizable=0;points=[];autosize=1;strokeColor=none;fillColor=none;" parent="U2cvYLdAaLWoxU3sf1OA-73" vertex="1">
          <mxGeometry x="270" y="450" width="70" height="30" as="geometry" />
        </mxCell>
        <mxCell id="U2cvYLdAaLWoxU3sf1OA-74" value="" style="endArrow=classic;html=1;rounded=0;exitX=1.037;exitY=0.481;exitDx=0;exitDy=0;exitPerimeter=0;entryX=-0.049;entryY=0.529;entryDx=0;entryDy=0;entryPerimeter=0;" parent="1" source="n0XynNMwgZ88w3417hK9-3" target="U2cvYLdAaLWoxU3sf1OA-48" edge="1">
          <mxGeometry width="50" height="50" relative="1" as="geometry">
            <mxPoint x="480" y="600" as="sourcePoint" />
            <mxPoint x="1040" y="414" as="targetPoint" />
            <Array as="points">
              <mxPoint x="120" y="414" />
              <mxPoint x="120" y="386" />
            </Array>
          </mxGeometry>
        </mxCell>
        <mxCell id="U2cvYLdAaLWoxU3sf1OA-75" value="" style="endArrow=classic;html=1;rounded=0;exitX=1.031;exitY=0.481;exitDx=0;exitDy=0;exitPerimeter=0;entryX=0.005;entryY=0.552;entryDx=0;entryDy=0;entryPerimeter=0;" parent="1" source="U2cvYLdAaLWoxU3sf1OA-50" target="U2cvYLdAaLWoxU3sf1OA-36" edge="1">
          <mxGeometry width="50" height="50" relative="1" as="geometry">
            <mxPoint x="1030" y="600" as="sourcePoint" />
            <mxPoint x="1080" y="550" as="targetPoint" />
            <Array as="points">
              <mxPoint x="1560" y="360" />
              <mxPoint x="1600" y="360" />
              <mxPoint x="1600" y="280" />
              <mxPoint x="680" y="280" />
              <mxPoint x="680" y="490" />
            </Array>
          </mxGeometry>
        </mxCell>
        <mxCell id="U2cvYLdAaLWoxU3sf1OA-76" value="" style="endArrow=classic;html=1;rounded=0;entryX=-0.048;entryY=0.481;entryDx=0;entryDy=0;entryPerimeter=0;" parent="1" target="U2cvYLdAaLWoxU3sf1OA-49" edge="1">
          <mxGeometry width="50" height="50" relative="1" as="geometry">
            <mxPoint x="960" y="550" as="sourcePoint" />
            <mxPoint x="1080" y="550" as="targetPoint" />
            <Array as="points">
              <mxPoint x="1000" y="550" />
              <mxPoint x="1000" y="420" />
            </Array>
          </mxGeometry>
        </mxCell>
        <mxCell id="U2cvYLdAaLWoxU3sf1OA-78" value="" style="endArrow=classic;html=1;rounded=0;" parent="1" edge="1">
          <mxGeometry width="50" height="50" relative="1" as="geometry">
            <mxPoint x="1040" y="460" as="sourcePoint" />
            <mxPoint x="1210" y="450" as="targetPoint" />
            <Array as="points">
              <mxPoint x="1040" y="450" />
            </Array>
          </mxGeometry>
        </mxCell>
        <mxCell id="4AoaGfoRSB3ki615u3ol-1" value="" style="rounded=0;whiteSpace=wrap;html=1;" parent="1" vertex="1">
          <mxGeometry x="1680" y="440" width="240" height="120" as="geometry" />
        </mxCell>
        <mxCell id="4AoaGfoRSB3ki615u3ol-2" value="write_en" style="text;html=1;align=left;verticalAlign=middle;resizable=0;points=[];autosize=1;strokeColor=none;fillColor=none;" parent="1" vertex="1">
          <mxGeometry x="1680" y="440" width="70" height="30" as="geometry" />
        </mxCell>
        <mxCell id="4AoaGfoRSB3ki615u3ol-3" value="waddr" style="text;html=1;align=left;verticalAlign=middle;resizable=0;points=[];autosize=1;strokeColor=none;fillColor=none;" parent="1" vertex="1">
          <mxGeometry x="1680" y="470" width="60" height="30" as="geometry" />
        </mxCell>
        <mxCell id="4AoaGfoRSB3ki615u3ol-4" value="wclk" style="text;html=1;align=left;verticalAlign=middle;resizable=0;points=[];autosize=1;strokeColor=none;fillColor=none;" parent="1" vertex="1">
          <mxGeometry x="1680" y="500" width="50" height="30" as="geometry" />
        </mxCell>
        <mxCell id="4AoaGfoRSB3ki615u3ol-5" value="raddr" style="text;html=1;align=right;verticalAlign=middle;resizable=0;points=[];autosize=1;strokeColor=none;fillColor=none;" parent="1" vertex="1">
          <mxGeometry x="1870" y="440" width="50" height="30" as="geometry" />
        </mxCell>
        <mxCell id="4AoaGfoRSB3ki615u3ol-6" value="rclk" style="text;html=1;align=right;verticalAlign=middle;resizable=0;points=[];autosize=1;strokeColor=none;fillColor=none;" parent="1" vertex="1">
          <mxGeometry x="1880" y="470" width="40" height="30" as="geometry" />
        </mxCell>
        <mxCell id="4AoaGfoRSB3ki615u3ol-7" value="dout" style="text;html=1;align=right;verticalAlign=middle;resizable=0;points=[];autosize=1;strokeColor=none;fillColor=none;" parent="1" vertex="1">
          <mxGeometry x="1870" y="500" width="50" height="30" as="geometry" />
        </mxCell>
        <mxCell id="4AoaGfoRSB3ki615u3ol-8" value="dpram" style="text;html=1;strokeColor=none;fillColor=none;align=center;verticalAlign=middle;whiteSpace=wrap;rounded=0;" parent="1" vertex="1">
          <mxGeometry x="1770" y="485" width="60" height="30" as="geometry" />
        </mxCell>
        <mxCell id="4AoaGfoRSB3ki615u3ol-9" value="din" style="text;html=1;align=left;verticalAlign=middle;resizable=0;points=[];autosize=1;strokeColor=none;fillColor=none;" parent="1" vertex="1">
          <mxGeometry x="1680" y="530" width="40" height="30" as="geometry" />
        </mxCell>
        <mxCell id="4AoaGfoRSB3ki615u3ol-10" value="" style="endArrow=classic;html=1;rounded=0;exitX=0.998;exitY=0.559;exitDx=0;exitDy=0;exitPerimeter=0;entryX=0.006;entryY=0.433;entryDx=0;entryDy=0;entryPerimeter=0;" parent="1" source="U2cvYLdAaLWoxU3sf1OA-61" target="4AoaGfoRSB3ki615u3ol-2" edge="1">
          <mxGeometry width="50" height="50" relative="1" as="geometry">
            <mxPoint x="1590" y="600" as="sourcePoint" />
            <mxPoint x="1640" y="550" as="targetPoint" />
            <Array as="points">
              <mxPoint x="1580" y="507" />
              <mxPoint x="1580" y="455" />
            </Array>
          </mxGeometry>
        </mxCell>
        <mxCell id="4AoaGfoRSB3ki615u3ol-11" value="" style="endArrow=classic;html=1;rounded=0;entryX=0;entryY=0.52;entryDx=0;entryDy=0;entryPerimeter=0;exitX=1;exitY=0.539;exitDx=0;exitDy=0;exitPerimeter=0;" parent="1" source="U2cvYLdAaLWoxU3sf1OA-60" target="4AoaGfoRSB3ki615u3ol-9" edge="1">
          <mxGeometry width="50" height="50" relative="1" as="geometry">
            <mxPoint x="1604" y="585" as="sourcePoint" />
            <mxPoint x="1654" y="535" as="targetPoint" />
            <Array as="points">
              <mxPoint x="1600" y="476" />
              <mxPoint x="1600" y="546" />
            </Array>
          </mxGeometry>
        </mxCell>
        <mxCell id="4AoaGfoRSB3ki615u3ol-12" value="" style="endArrow=classic;html=1;rounded=0;entryX=-0.02;entryY=0.633;entryDx=0;entryDy=0;entryPerimeter=0;" parent="1" target="4AoaGfoRSB3ki615u3ol-4" edge="1">
          <mxGeometry width="50" height="50" relative="1" as="geometry">
            <mxPoint x="1160" y="390" as="sourcePoint" />
            <mxPoint x="1630" y="350" as="targetPoint" />
            <Array as="points">
              <mxPoint x="1160" y="240" />
              <mxPoint x="1660" y="240" />
              <mxPoint x="1660" y="519" />
            </Array>
          </mxGeometry>
        </mxCell>
        <mxCell id="4AoaGfoRSB3ki615u3ol-14" value="" style="endArrow=classic;html=1;rounded=0;entryX=1.007;entryY=0.346;entryDx=0;entryDy=0;entryPerimeter=0;" parent="1" target="4AoaGfoRSB3ki615u3ol-6" edge="1">
          <mxGeometry width="50" height="50" relative="1" as="geometry">
            <mxPoint x="1660" y="240" as="sourcePoint" />
            <mxPoint x="1930" y="484" as="targetPoint" />
            <Array as="points">
              <mxPoint x="1940" y="240" />
              <mxPoint x="1940" y="480" />
            </Array>
          </mxGeometry>
        </mxCell>
        <mxCell id="4AoaGfoRSB3ki615u3ol-15" value="" style="endArrow=classic;html=1;rounded=0;exitX=1.028;exitY=0.569;exitDx=0;exitDy=0;exitPerimeter=0;entryX=-0.007;entryY=0.529;entryDx=0;entryDy=0;entryPerimeter=0;" parent="1" source="U2cvYLdAaLWoxU3sf1OA-59" target="4AoaGfoRSB3ki615u3ol-3" edge="1">
          <mxGeometry width="50" height="50" relative="1" as="geometry">
            <mxPoint x="1580" y="600" as="sourcePoint" />
            <mxPoint x="1630" y="550" as="targetPoint" />
            <Array as="points">
              <mxPoint x="1620" y="447" />
              <mxPoint x="1620" y="486" />
            </Array>
          </mxGeometry>
        </mxCell>
        <mxCell id="4AoaGfoRSB3ki615u3ol-27" value="" style="group" parent="1" vertex="1" connectable="0">
          <mxGeometry x="1990" y="440" width="290" height="180" as="geometry" />
        </mxCell>
        <mxCell id="4AoaGfoRSB3ki615u3ol-16" value="" style="rounded=0;whiteSpace=wrap;html=1;" parent="4AoaGfoRSB3ki615u3ol-27" vertex="1">
          <mxGeometry width="290" height="180" as="geometry" />
        </mxCell>
        <mxCell id="4AoaGfoRSB3ki615u3ol-17" value="i_Clk" style="text;html=1;align=left;verticalAlign=middle;resizable=0;points=[];autosize=1;strokeColor=none;fillColor=none;" parent="4AoaGfoRSB3ki615u3ol-27" vertex="1">
          <mxGeometry width="50" height="30" as="geometry" />
        </mxCell>
        <mxCell id="4AoaGfoRSB3ki615u3ol-18" value="i_Begin" style="text;html=1;align=left;verticalAlign=middle;resizable=0;points=[];autosize=1;strokeColor=none;fillColor=none;" parent="4AoaGfoRSB3ki615u3ol-27" vertex="1">
          <mxGeometry y="72" width="60" height="30" as="geometry" />
        </mxCell>
        <mxCell id="4AoaGfoRSB3ki615u3ol-19" value="i_dpram_data" style="text;html=1;align=left;verticalAlign=middle;resizable=0;points=[];autosize=1;strokeColor=none;fillColor=none;" parent="4AoaGfoRSB3ki615u3ol-27" vertex="1">
          <mxGeometry y="148" width="100" height="30" as="geometry" />
        </mxCell>
        <mxCell id="4AoaGfoRSB3ki615u3ol-20" value="o_Done" style="text;html=1;align=right;verticalAlign=middle;resizable=0;points=[];autosize=1;strokeColor=none;fillColor=none;" parent="4AoaGfoRSB3ki615u3ol-27" vertex="1">
          <mxGeometry x="220" width="70" height="30" as="geometry" />
        </mxCell>
        <mxCell id="4AoaGfoRSB3ki615u3ol-21" value="o_dpram_raddr" style="text;html=1;align=right;verticalAlign=middle;resizable=0;points=[];autosize=1;strokeColor=none;fillColor=none;" parent="4AoaGfoRSB3ki615u3ol-27" vertex="1">
          <mxGeometry x="180" y="30" width="110" height="30" as="geometry" />
        </mxCell>
        <mxCell id="4AoaGfoRSB3ki615u3ol-22" value="o_svnr_ram_address" style="text;html=1;align=right;verticalAlign=middle;resizable=0;points=[];autosize=1;strokeColor=none;fillColor=none;" parent="4AoaGfoRSB3ki615u3ol-27" vertex="1">
          <mxGeometry x="150" y="60" width="140" height="30" as="geometry" />
        </mxCell>
        <mxCell id="4AoaGfoRSB3ki615u3ol-23" value="runner" style="text;html=1;strokeColor=none;fillColor=none;align=center;verticalAlign=middle;whiteSpace=wrap;rounded=0;" parent="4AoaGfoRSB3ki615u3ol-27" vertex="1">
          <mxGeometry x="115" y="75" width="60" height="30" as="geometry" />
        </mxCell>
        <mxCell id="4AoaGfoRSB3ki615u3ol-24" value="o_svnr_ram_data_in" style="text;html=1;align=right;verticalAlign=middle;resizable=0;points=[];autosize=1;strokeColor=none;fillColor=none;" parent="4AoaGfoRSB3ki615u3ol-27" vertex="1">
          <mxGeometry x="160" y="90" width="130" height="30" as="geometry" />
        </mxCell>
        <mxCell id="4AoaGfoRSB3ki615u3ol-25" value="o_svnr_wnr" style="text;html=1;align=right;verticalAlign=middle;resizable=0;points=[];autosize=1;strokeColor=none;fillColor=none;" parent="4AoaGfoRSB3ki615u3ol-27" vertex="1">
          <mxGeometry x="200" y="120" width="90" height="30" as="geometry" />
        </mxCell>
        <mxCell id="4AoaGfoRSB3ki615u3ol-26" value="o_svnr_addrstrb" style="text;html=1;align=right;verticalAlign=middle;resizable=0;points=[];autosize=1;strokeColor=none;fillColor=none;" parent="4AoaGfoRSB3ki615u3ol-27" vertex="1">
          <mxGeometry x="180" y="150" width="110" height="30" as="geometry" />
        </mxCell>
        <mxCell id="4AoaGfoRSB3ki615u3ol-28" value="" style="endArrow=classic;html=1;rounded=0;exitX=1.029;exitY=0.451;exitDx=0;exitDy=0;exitPerimeter=0;" parent="1" source="4AoaGfoRSB3ki615u3ol-21" edge="1">
          <mxGeometry width="50" height="50" relative="1" as="geometry">
            <mxPoint x="1970" y="450" as="sourcePoint" />
            <mxPoint x="1920" y="450" as="targetPoint" />
            <Array as="points">
              <mxPoint x="2300" y="484" />
              <mxPoint x="2300" y="430" />
              <mxPoint x="1960" y="430" />
              <mxPoint x="1960" y="450" />
            </Array>
          </mxGeometry>
        </mxCell>
        <mxCell id="4AoaGfoRSB3ki615u3ol-29" value="" style="endArrow=classic;html=1;rounded=0;exitX=1.023;exitY=0.629;exitDx=0;exitDy=0;exitPerimeter=0;entryX=-0.017;entryY=0.338;entryDx=0;entryDy=0;entryPerimeter=0;" parent="1" source="4AoaGfoRSB3ki615u3ol-7" target="4AoaGfoRSB3ki615u3ol-19" edge="1">
          <mxGeometry width="50" height="50" relative="1" as="geometry">
            <mxPoint x="1990" y="590" as="sourcePoint" />
            <mxPoint x="2040" y="540" as="targetPoint" />
            <Array as="points">
              <mxPoint x="1960" y="519" />
              <mxPoint x="1960" y="600" />
            </Array>
          </mxGeometry>
        </mxCell>
        <mxCell id="4AoaGfoRSB3ki615u3ol-30" value="" style="endArrow=classic;html=1;rounded=0;entryX=0;entryY=0.667;entryDx=0;entryDy=0;entryPerimeter=0;" parent="1" target="4AoaGfoRSB3ki615u3ol-17" edge="1">
          <mxGeometry width="50" height="50" relative="1" as="geometry">
            <mxPoint x="1940" y="460" as="sourcePoint" />
            <mxPoint x="2040" y="540" as="targetPoint" />
          </mxGeometry>
        </mxCell>
        <mxCell id="4AoaGfoRSB3ki615u3ol-31" value="" style="endArrow=classic;html=1;rounded=0;exitX=0.992;exitY=0.562;exitDx=0;exitDy=0;exitPerimeter=0;entryX=0;entryY=0.5;entryDx=0;entryDy=0;" parent="1" source="U2cvYLdAaLWoxU3sf1OA-62" target="4AoaGfoRSB3ki615u3ol-16" edge="1">
          <mxGeometry width="50" height="50" relative="1" as="geometry">
            <mxPoint x="1700" y="650" as="sourcePoint" />
            <mxPoint x="1750" y="600" as="targetPoint" />
            <Array as="points">
              <mxPoint x="1580" y="537" />
              <mxPoint x="1580" y="580" />
              <mxPoint x="1940" y="580" />
              <mxPoint x="1940" y="530" />
            </Array>
          </mxGeometry>
        </mxCell>
        <mxCell id="4AoaGfoRSB3ki615u3ol-32" value="" style="endArrow=classic;html=1;rounded=0;exitX=1.018;exitY=0.664;exitDx=0;exitDy=0;exitPerimeter=0;entryX=0.005;entryY=0.51;entryDx=0;entryDy=0;entryPerimeter=0;" parent="1" source="4AoaGfoRSB3ki615u3ol-20" target="U2cvYLdAaLWoxU3sf1OA-67" edge="1">
          <mxGeometry width="50" height="50" relative="1" as="geometry">
            <mxPoint x="1700" y="650" as="sourcePoint" />
            <mxPoint x="2360" y="460" as="targetPoint" />
            <Array as="points">
              <mxPoint x="2320" y="460" />
              <mxPoint x="2320" y="840" />
              <mxPoint x="1160" y="840" />
              <mxPoint x="1160" y="595" />
            </Array>
          </mxGeometry>
        </mxCell>
        <mxCell id="4AoaGfoRSB3ki615u3ol-41" value="" style="group" parent="1" vertex="1" connectable="0">
          <mxGeometry x="2180" y="950" width="240" height="90" as="geometry" />
        </mxCell>
        <mxCell id="4AoaGfoRSB3ki615u3ol-33" value="" style="rounded=0;whiteSpace=wrap;html=1;" parent="4AoaGfoRSB3ki615u3ol-41" vertex="1">
          <mxGeometry width="240" height="90" as="geometry" />
        </mxCell>
        <mxCell id="4AoaGfoRSB3ki615u3ol-34" value="i_Clk" style="text;html=1;align=left;verticalAlign=middle;resizable=0;points=[];autosize=1;strokeColor=none;fillColor=none;" parent="4AoaGfoRSB3ki615u3ol-41" vertex="1">
          <mxGeometry width="50" height="30" as="geometry" />
        </mxCell>
        <mxCell id="4AoaGfoRSB3ki615u3ol-35" value="i_TX_DV" style="text;html=1;align=left;verticalAlign=middle;resizable=0;points=[];autosize=1;strokeColor=none;fillColor=none;" parent="4AoaGfoRSB3ki615u3ol-41" vertex="1">
          <mxGeometry y="30" width="70" height="30" as="geometry" />
        </mxCell>
        <mxCell id="4AoaGfoRSB3ki615u3ol-36" value="i_TX_Byte" style="text;html=1;align=left;verticalAlign=middle;resizable=0;points=[];autosize=1;strokeColor=none;fillColor=none;" parent="4AoaGfoRSB3ki615u3ol-41" vertex="1">
          <mxGeometry y="60" width="80" height="30" as="geometry" />
        </mxCell>
        <mxCell id="4AoaGfoRSB3ki615u3ol-37" value="o_TX_Active" style="text;html=1;align=right;verticalAlign=middle;resizable=0;points=[];autosize=1;strokeColor=none;fillColor=none;" parent="4AoaGfoRSB3ki615u3ol-41" vertex="1">
          <mxGeometry x="150" width="90" height="30" as="geometry" />
        </mxCell>
        <mxCell id="4AoaGfoRSB3ki615u3ol-38" value="o_TX_Serial" style="text;html=1;align=right;verticalAlign=middle;resizable=0;points=[];autosize=1;strokeColor=none;fillColor=none;" parent="4AoaGfoRSB3ki615u3ol-41" vertex="1">
          <mxGeometry x="150" y="30" width="90" height="30" as="geometry" />
        </mxCell>
        <mxCell id="4AoaGfoRSB3ki615u3ol-39" value="&amp;nbsp; &amp;nbsp; o_TX_Done" style="text;html=1;align=right;verticalAlign=middle;resizable=0;points=[];autosize=1;strokeColor=none;fillColor=none;" parent="4AoaGfoRSB3ki615u3ol-41" vertex="1">
          <mxGeometry x="140" y="60" width="100" height="30" as="geometry" />
        </mxCell>
        <mxCell id="4AoaGfoRSB3ki615u3ol-40" value="UART_TX" style="text;html=1;strokeColor=none;fillColor=none;align=center;verticalAlign=middle;whiteSpace=wrap;rounded=0;" parent="4AoaGfoRSB3ki615u3ol-41" vertex="1">
          <mxGeometry x="90" y="30" width="60" height="30" as="geometry" />
        </mxCell>
        <mxCell id="4AoaGfoRSB3ki615u3ol-43" value="o_txd" style="text;whiteSpace=wrap;html=1;" parent="1" vertex="1">
          <mxGeometry x="2465" y="980" width="60" height="40" as="geometry" />
        </mxCell>
        <mxCell id="4AoaGfoRSB3ki615u3ol-44" value="" style="endArrow=classic;html=1;rounded=0;exitX=1.004;exitY=0.499;exitDx=0;exitDy=0;exitPerimeter=0;" parent="1" source="4AoaGfoRSB3ki615u3ol-38" edge="1">
          <mxGeometry width="50" height="50" relative="1" as="geometry">
            <mxPoint x="2220" y="920" as="sourcePoint" />
            <mxPoint x="2460" y="995" as="targetPoint" />
          </mxGeometry>
        </mxCell>
        <mxCell id="4AoaGfoRSB3ki615u3ol-45" value="" style="endArrow=classic;html=1;rounded=0;exitX=1.009;exitY=0.583;exitDx=0;exitDy=0;exitPerimeter=0;" parent="1" source="4AoaGfoRSB3ki615u3ol-22" edge="1">
          <mxGeometry width="50" height="50" relative="1" as="geometry">
            <mxPoint x="2180" y="720" as="sourcePoint" />
            <mxPoint x="2360" y="520" as="targetPoint" />
          </mxGeometry>
        </mxCell>
        <mxCell id="4AoaGfoRSB3ki615u3ol-46" value="o_svnr_ram_address" style="text;whiteSpace=wrap;html=1;" parent="1" vertex="1">
          <mxGeometry x="2360" y="505" width="115" height="25" as="geometry" />
        </mxCell>
        <mxCell id="4AoaGfoRSB3ki615u3ol-47" value="o_svnr_ram_data_in" style="text;whiteSpace=wrap;html=1;" parent="1" vertex="1">
          <mxGeometry x="2360" y="535" width="120" height="25" as="geometry" />
        </mxCell>
        <mxCell id="4AoaGfoRSB3ki615u3ol-48" value="" style="endArrow=classic;html=1;rounded=0;exitX=1.017;exitY=0.5;exitDx=0;exitDy=0;exitPerimeter=0;" parent="1" source="4AoaGfoRSB3ki615u3ol-24" edge="1">
          <mxGeometry width="50" height="50" relative="1" as="geometry">
            <mxPoint x="2291" y="550" as="sourcePoint" />
            <mxPoint x="2360" y="550" as="targetPoint" />
          </mxGeometry>
        </mxCell>
        <mxCell id="4AoaGfoRSB3ki615u3ol-49" value="o_svnr_wnr" style="text;whiteSpace=wrap;html=1;" parent="1" vertex="1">
          <mxGeometry x="2360" y="570" width="100" height="30" as="geometry" />
        </mxCell>
        <mxCell id="4AoaGfoRSB3ki615u3ol-50" value="" style="endArrow=classic;html=1;rounded=0;exitX=1.025;exitY=0.534;exitDx=0;exitDy=0;exitPerimeter=0;" parent="1" source="4AoaGfoRSB3ki615u3ol-25" edge="1">
          <mxGeometry width="50" height="50" relative="1" as="geometry">
            <mxPoint x="2292" y="555" as="sourcePoint" />
            <mxPoint x="2360" y="580" as="targetPoint" />
          </mxGeometry>
        </mxCell>
        <mxCell id="4AoaGfoRSB3ki615u3ol-51" value="o_svnr_addrstrb" style="text;whiteSpace=wrap;html=1;" parent="1" vertex="1">
          <mxGeometry x="2360" y="600" width="95" height="30" as="geometry" />
        </mxCell>
        <mxCell id="4AoaGfoRSB3ki615u3ol-52" value="" style="endArrow=classic;html=1;rounded=0;exitX=1.002;exitY=0.489;exitDx=0;exitDy=0;exitPerimeter=0;entryX=-0.021;entryY=0.367;entryDx=0;entryDy=0;entryPerimeter=0;" parent="1" source="4AoaGfoRSB3ki615u3ol-26" target="4AoaGfoRSB3ki615u3ol-51" edge="1">
          <mxGeometry width="50" height="50" relative="1" as="geometry">
            <mxPoint x="2270" y="680" as="sourcePoint" />
            <mxPoint x="2320" y="630" as="targetPoint" />
          </mxGeometry>
        </mxCell>
        <mxCell id="4AoaGfoRSB3ki615u3ol-63" value="" style="endArrow=classic;html=1;rounded=0;entryX=-0.054;entryY=0.588;entryDx=0;entryDy=0;entryPerimeter=0;" parent="1" target="4AoaGfoRSB3ki615u3ol-56" edge="1">
          <mxGeometry width="50" height="50" relative="1" as="geometry">
            <mxPoint x="1660" y="520" as="sourcePoint" />
            <mxPoint x="1630" y="800" as="targetPoint" />
            <Array as="points">
              <mxPoint x="1660" y="800" />
              <mxPoint x="1580" y="800" />
              <mxPoint x="1580" y="938" />
            </Array>
          </mxGeometry>
        </mxCell>
        <mxCell id="4AoaGfoRSB3ki615u3ol-64" value="" style="endArrow=classic;html=1;rounded=0;entryX=-0.102;entryY=0.51;entryDx=0;entryDy=0;entryPerimeter=0;" parent="1" target="4AoaGfoRSB3ki615u3ol-34" edge="1">
          <mxGeometry width="50" height="50" relative="1" as="geometry">
            <mxPoint x="1660" y="800" as="sourcePoint" />
            <mxPoint x="1840" y="780" as="targetPoint" />
            <Array as="points">
              <mxPoint x="2000" y="800" />
              <mxPoint x="2000" y="960" />
            </Array>
          </mxGeometry>
        </mxCell>
        <mxCell id="4AoaGfoRSB3ki615u3ol-71" value="" style="endArrow=classic;html=1;rounded=0;entryX=-0.012;entryY=0.529;entryDx=0;entryDy=0;entryPerimeter=0;exitX=1;exitY=0.5;exitDx=0;exitDy=0;" parent="1" source="4AoaGfoRSB3ki615u3ol-69" target="4AoaGfoRSB3ki615u3ol-36" edge="1">
          <mxGeometry width="50" height="50" relative="1" as="geometry">
            <mxPoint x="1830" y="1040" as="sourcePoint" />
            <mxPoint x="1880" y="990" as="targetPoint" />
          </mxGeometry>
        </mxCell>
        <mxCell id="4AoaGfoRSB3ki615u3ol-72" value="" style="endArrow=classic;html=1;rounded=0;exitX=0.994;exitY=0.471;exitDx=0;exitDy=0;exitPerimeter=0;entryX=0;entryY=0.5;entryDx=0;entryDy=0;" parent="1" source="4AoaGfoRSB3ki615u3ol-59" target="4AoaGfoRSB3ki615u3ol-69" edge="1">
          <mxGeometry width="50" height="50" relative="1" as="geometry">
            <mxPoint x="1830" y="1040" as="sourcePoint" />
            <mxPoint x="1880" y="990" as="targetPoint" />
            <Array as="points">
              <mxPoint x="1880" y="934" />
              <mxPoint x="1960" y="934" />
              <mxPoint x="1960" y="1025" />
            </Array>
          </mxGeometry>
        </mxCell>
        <mxCell id="4AoaGfoRSB3ki615u3ol-81" value="" style="endArrow=classic;html=1;rounded=0;exitX=1.029;exitY=0.6;exitDx=0;exitDy=0;exitPerimeter=0;entryX=-0.043;entryY=0.567;entryDx=0;entryDy=0;entryPerimeter=0;" parent="1" source="4AoaGfoRSB3ki615u3ol-78" target="4AoaGfoRSB3ki615u3ol-35" edge="1">
          <mxGeometry width="50" height="50" relative="1" as="geometry">
            <mxPoint x="1830" y="1080" as="sourcePoint" />
            <mxPoint x="1880" y="1030" as="targetPoint" />
            <Array as="points">
              <mxPoint x="2140" y="1250" />
              <mxPoint x="2140" y="1000" />
            </Array>
          </mxGeometry>
        </mxCell>
        <mxCell id="4AoaGfoRSB3ki615u3ol-82" value="" style="endArrow=classic;html=1;rounded=0;exitX=1.039;exitY=0.529;exitDx=0;exitDy=0;exitPerimeter=0;entryX=-0.03;entryY=0.576;entryDx=0;entryDy=0;entryPerimeter=0;" parent="1" source="4AoaGfoRSB3ki615u3ol-79" target="U2cvYLdAaLWoxU3sf1OA-58" edge="1">
          <mxGeometry width="50" height="50" relative="1" as="geometry">
            <mxPoint x="1520" y="880" as="sourcePoint" />
            <mxPoint x="1570" y="830" as="targetPoint" />
            <Array as="points">
              <mxPoint x="2120" y="1360" />
              <mxPoint x="2120" y="1200" />
              <mxPoint x="1900" y="1200" />
              <mxPoint x="1170" y="1200" />
              <mxPoint x="1170" y="567" />
            </Array>
          </mxGeometry>
        </mxCell>
        <mxCell id="4AoaGfoRSB3ki615u3ol-83" value="" style="endArrow=classic;html=1;rounded=0;exitX=1.015;exitY=0.529;exitDx=0;exitDy=0;exitPerimeter=0;entryX=-0.032;entryY=0.433;entryDx=0;entryDy=0;entryPerimeter=0;" parent="1" source="U2cvYLdAaLWoxU3sf1OA-63" target="4AoaGfoRSB3ki615u3ol-74" edge="1">
          <mxGeometry width="50" height="50" relative="1" as="geometry">
            <mxPoint x="1520" y="880" as="sourcePoint" />
            <mxPoint x="1570" y="830" as="targetPoint" />
            <Array as="points">
              <mxPoint x="1560" y="570" />
              <mxPoint x="1560" y="1270" />
            </Array>
          </mxGeometry>
        </mxCell>
        <mxCell id="4AoaGfoRSB3ki615u3ol-84" value="" style="endArrow=classic;html=1;rounded=0;exitX=0.99;exitY=0.624;exitDx=0;exitDy=0;exitPerimeter=0;entryX=0.004;entryY=0.624;entryDx=0;entryDy=0;entryPerimeter=0;" parent="1" source="4AoaGfoRSB3ki615u3ol-60" target="4AoaGfoRSB3ki615u3ol-75" edge="1">
          <mxGeometry width="50" height="50" relative="1" as="geometry">
            <mxPoint x="1520" y="880" as="sourcePoint" />
            <mxPoint x="1570" y="830" as="targetPoint" />
            <Array as="points">
              <mxPoint x="1890" y="1000" />
              <mxPoint x="1890" y="1100" />
              <mxPoint x="1780" y="1100" />
              <mxPoint x="1780" y="1310" />
            </Array>
          </mxGeometry>
        </mxCell>
        <mxCell id="4AoaGfoRSB3ki615u3ol-85" value="" style="endArrow=classic;html=1;rounded=0;entryX=-0.01;entryY=0.587;entryDx=0;entryDy=0;entryPerimeter=0;" parent="1" target="4AoaGfoRSB3ki615u3ol-73" edge="1">
          <mxGeometry width="50" height="50" relative="1" as="geometry">
            <mxPoint x="1580" y="930" as="sourcePoint" />
            <mxPoint x="1620" y="960" as="targetPoint" />
            <Array as="points">
              <mxPoint x="1570" y="930" />
              <mxPoint x="1570" y="1250" />
            </Array>
          </mxGeometry>
        </mxCell>
        <mxCell id="4AoaGfoRSB3ki615u3ol-86" value="" style="rounded=0;whiteSpace=wrap;html=1;" parent="1" vertex="1">
          <mxGeometry x="1260" y="980" width="120" height="60" as="geometry" />
        </mxCell>
        <mxCell id="4AoaGfoRSB3ki615u3ol-87" value="w_flush" style="text;html=1;strokeColor=none;fillColor=none;align=center;verticalAlign=middle;whiteSpace=wrap;rounded=0;" parent="1" vertex="1">
          <mxGeometry x="1260" y="980" width="60" height="20" as="geometry" />
        </mxCell>
        <mxCell id="4AoaGfoRSB3ki615u3ol-88" value="OR" style="text;html=1;strokeColor=none;fillColor=none;align=center;verticalAlign=middle;whiteSpace=wrap;rounded=0;" parent="1" vertex="1">
          <mxGeometry x="1260" y="1006" width="60" height="10" as="geometry" />
        </mxCell>
        <mxCell id="4AoaGfoRSB3ki615u3ol-89" value="s_tx_trig" style="text;html=1;strokeColor=none;fillColor=none;align=center;verticalAlign=middle;whiteSpace=wrap;rounded=0;" parent="1" vertex="1">
          <mxGeometry x="1260" y="1020" width="60" height="20" as="geometry" />
        </mxCell>
        <mxCell id="4AoaGfoRSB3ki615u3ol-91" value="" style="endArrow=classic;html=1;rounded=0;entryX=0;entryY=0.5;entryDx=0;entryDy=0;" parent="1" target="4AoaGfoRSB3ki615u3ol-87" edge="1">
          <mxGeometry width="50" height="50" relative="1" as="geometry">
            <mxPoint x="1570" y="360" as="sourcePoint" />
            <mxPoint x="1510" y="690" as="targetPoint" />
            <Array as="points">
              <mxPoint x="1570" y="880" />
              <mxPoint x="1240" y="880" />
              <mxPoint x="1240" y="990" />
            </Array>
          </mxGeometry>
        </mxCell>
        <mxCell id="4AoaGfoRSB3ki615u3ol-92" value="" style="endArrow=classic;html=1;rounded=0;exitX=0.629;exitY=1.045;exitDx=0;exitDy=0;exitPerimeter=0;entryX=0;entryY=0.5;entryDx=0;entryDy=0;" parent="1" source="U2cvYLdAaLWoxU3sf1OA-72" target="4AoaGfoRSB3ki615u3ol-89" edge="1">
          <mxGeometry width="50" height="50" relative="1" as="geometry">
            <mxPoint x="1250" y="860" as="sourcePoint" />
            <mxPoint x="1300" y="810" as="targetPoint" />
            <Array as="points">
              <mxPoint x="1524" y="860" />
              <mxPoint x="1220" y="860" />
              <mxPoint x="1220" y="1030" />
            </Array>
          </mxGeometry>
        </mxCell>
        <mxCell id="4AoaGfoRSB3ki615u3ol-93" value="r_wen" style="text;html=1;strokeColor=none;fillColor=none;align=right;verticalAlign=middle;whiteSpace=wrap;rounded=0;" parent="1" vertex="1">
          <mxGeometry x="1320" y="995" width="60" height="30" as="geometry" />
        </mxCell>
        <mxCell id="4AoaGfoRSB3ki615u3ol-94" value="" style="endArrow=classic;html=1;rounded=0;exitX=1;exitY=0.25;exitDx=0;exitDy=0;entryX=-0.016;entryY=0.57;entryDx=0;entryDy=0;entryPerimeter=0;" parent="1" source="4AoaGfoRSB3ki615u3ol-93" target="4AoaGfoRSB3ki615u3ol-57" edge="1">
          <mxGeometry width="50" height="50" relative="1" as="geometry">
            <mxPoint x="1260" y="940" as="sourcePoint" />
            <mxPoint x="1310" y="890" as="targetPoint" />
            <Array as="points">
              <mxPoint x="1400" y="1003" />
              <mxPoint x="1400" y="965" />
            </Array>
          </mxGeometry>
        </mxCell>
        <mxCell id="4AoaGfoRSB3ki615u3ol-95" value="" style="endArrow=classic;html=1;rounded=0;entryX=0;entryY=0.656;entryDx=0;entryDy=0;entryPerimeter=0;exitX=1.024;exitY=0.656;exitDx=0;exitDy=0;exitPerimeter=0;" parent="1" source="U2cvYLdAaLWoxU3sf1OA-52" target="4AoaGfoRSB3ki615u3ol-58" edge="1">
          <mxGeometry width="50" height="50" relative="1" as="geometry">
            <mxPoint x="1750" y="760" as="sourcePoint" />
            <mxPoint x="1800" y="710" as="targetPoint" />
            <Array as="points">
              <mxPoint x="1590" y="420" />
              <mxPoint x="1590" y="1000" />
            </Array>
          </mxGeometry>
        </mxCell>
        <mxCell id="wKJ1ekGVh0ovZ_IMOUga-13" value="" style="group" vertex="1" connectable="0" parent="1">
          <mxGeometry x="660" y="785" width="360" height="210" as="geometry" />
        </mxCell>
        <mxCell id="wKJ1ekGVh0ovZ_IMOUga-1" value="" style="rounded=0;whiteSpace=wrap;html=1;" vertex="1" parent="wKJ1ekGVh0ovZ_IMOUga-13">
          <mxGeometry width="360" height="210" as="geometry" />
        </mxCell>
        <mxCell id="wKJ1ekGVh0ovZ_IMOUga-2" value="i_clk" style="text;html=1;align=left;verticalAlign=middle;resizable=0;points=[];autosize=1;strokeColor=none;fillColor=none;" vertex="1" parent="wKJ1ekGVh0ovZ_IMOUga-13">
          <mxGeometry width="50" height="30" as="geometry" />
        </mxCell>
        <mxCell id="wKJ1ekGVh0ovZ_IMOUga-3" value="i_program_counter" style="text;html=1;align=left;verticalAlign=middle;resizable=0;points=[];autosize=1;strokeColor=none;fillColor=none;" vertex="1" parent="wKJ1ekGVh0ovZ_IMOUga-13">
          <mxGeometry y="30" width="120" height="30" as="geometry" />
        </mxCell>
        <mxCell id="wKJ1ekGVh0ovZ_IMOUga-4" value="i_breakpoint_add" style="text;html=1;align=left;verticalAlign=middle;resizable=0;points=[];autosize=1;strokeColor=none;fillColor=none;" vertex="1" parent="wKJ1ekGVh0ovZ_IMOUga-13">
          <mxGeometry y="60" width="120" height="30" as="geometry" />
        </mxCell>
        <mxCell id="wKJ1ekGVh0ovZ_IMOUga-5" value="o_cpu_en" style="text;html=1;align=right;verticalAlign=middle;resizable=0;points=[];autosize=1;strokeColor=none;fillColor=none;" vertex="1" parent="wKJ1ekGVh0ovZ_IMOUga-13">
          <mxGeometry x="280" width="80" height="30" as="geometry" />
        </mxCell>
        <mxCell id="wKJ1ekGVh0ovZ_IMOUga-6" value="o_cpu_halt" style="text;html=1;align=right;verticalAlign=middle;resizable=0;points=[];autosize=1;strokeColor=none;fillColor=none;" vertex="1" parent="wKJ1ekGVh0ovZ_IMOUga-13">
          <mxGeometry x="280" y="30" width="80" height="30" as="geometry" />
        </mxCell>
        <mxCell id="wKJ1ekGVh0ovZ_IMOUga-7" value="o_edit_done" style="text;html=1;align=right;verticalAlign=middle;resizable=0;points=[];autosize=1;strokeColor=none;fillColor=none;" vertex="1" parent="wKJ1ekGVh0ovZ_IMOUga-13">
          <mxGeometry x="270" y="60" width="90" height="30" as="geometry" />
        </mxCell>
        <mxCell id="wKJ1ekGVh0ovZ_IMOUga-8" value="Breakpoint_Controller" style="text;html=1;strokeColor=none;fillColor=none;align=center;verticalAlign=middle;whiteSpace=wrap;rounded=0;" vertex="1" parent="wKJ1ekGVh0ovZ_IMOUga-13">
          <mxGeometry x="117.5" y="90" width="125" height="30" as="geometry" />
        </mxCell>
        <mxCell id="wKJ1ekGVh0ovZ_IMOUga-9" value="i_breakpoint_value" style="text;html=1;align=left;verticalAlign=middle;resizable=0;points=[];autosize=1;strokeColor=none;fillColor=none;" vertex="1" parent="wKJ1ekGVh0ovZ_IMOUga-13">
          <mxGeometry y="120" width="120" height="30" as="geometry" />
        </mxCell>
        <mxCell id="wKJ1ekGVh0ovZ_IMOUga-10" value="i_breakpoint_enable" style="text;html=1;align=left;verticalAlign=middle;resizable=0;points=[];autosize=1;strokeColor=none;fillColor=none;" vertex="1" parent="wKJ1ekGVh0ovZ_IMOUga-13">
          <mxGeometry y="150" width="130" height="30" as="geometry" />
        </mxCell>
        <mxCell id="wKJ1ekGVh0ovZ_IMOUga-11" value="i_run" style="text;html=1;align=left;verticalAlign=middle;resizable=0;points=[];autosize=1;strokeColor=none;fillColor=none;" vertex="1" parent="wKJ1ekGVh0ovZ_IMOUga-13">
          <mxGeometry y="180" width="50" height="30" as="geometry" />
        </mxCell>
        <mxCell id="wKJ1ekGVh0ovZ_IMOUga-12" value="i_breakpoint_delete" style="text;html=1;strokeColor=none;fillColor=none;align=center;verticalAlign=middle;whiteSpace=wrap;rounded=0;" vertex="1" parent="wKJ1ekGVh0ovZ_IMOUga-13">
          <mxGeometry y="90" width="110" height="30" as="geometry" />
        </mxCell>
        <mxCell id="wKJ1ekGVh0ovZ_IMOUga-14" value="" style="endArrow=classic;html=1;rounded=0;entryX=-0.025;entryY=0.5;entryDx=0;entryDy=0;entryPerimeter=0;" edge="1" parent="1" target="wKJ1ekGVh0ovZ_IMOUga-2">
          <mxGeometry width="50" height="50" relative="1" as="geometry">
            <mxPoint x="230" y="460" as="sourcePoint" />
            <mxPoint x="500" y="670" as="targetPoint" />
            <Array as="points">
              <mxPoint x="230" y="800" />
            </Array>
          </mxGeometry>
        </mxCell>
        <mxCell id="wKJ1ekGVh0ovZ_IMOUga-15" value="" style="endArrow=classic;html=1;rounded=0;exitX=1.031;exitY=0.583;exitDx=0;exitDy=0;exitPerimeter=0;entryX=-0.011;entryY=0.52;entryDx=0;entryDy=0;entryPerimeter=0;" edge="1" parent="1" source="n0XynNMwgZ88w3417hK9-5" target="wKJ1ekGVh0ovZ_IMOUga-3">
          <mxGeometry width="50" height="50" relative="1" as="geometry">
            <mxPoint x="450" y="720" as="sourcePoint" />
            <mxPoint x="650" y="830" as="targetPoint" />
            <Array as="points">
              <mxPoint x="160" y="480" />
              <mxPoint x="160" y="830" />
            </Array>
          </mxGeometry>
        </mxCell>
        <mxCell id="wKJ1ekGVh0ovZ_IMOUga-19" value="" style="endArrow=classic;html=1;rounded=0;exitX=1.008;exitY=0.542;exitDx=0;exitDy=0;exitPerimeter=0;entryX=-0.017;entryY=0.564;entryDx=0;entryDy=0;entryPerimeter=0;" edge="1" parent="1" source="U2cvYLdAaLWoxU3sf1OA-66" target="wKJ1ekGVh0ovZ_IMOUga-4">
          <mxGeometry width="50" height="50" relative="1" as="geometry">
            <mxPoint x="1760" y="680" as="sourcePoint" />
            <mxPoint x="1800" y="660" as="targetPoint" />
            <Array as="points">
              <mxPoint x="1630" y="656" />
              <mxPoint x="1630" y="920" />
              <mxPoint x="1100" y="920" />
              <mxPoint x="1100" y="1030" />
              <mxPoint x="610" y="1030" />
              <mxPoint x="610" y="862" />
            </Array>
          </mxGeometry>
        </mxCell>
        <mxCell id="wKJ1ekGVh0ovZ_IMOUga-20" value="" style="endArrow=classic;html=1;rounded=0;exitX=1.004;exitY=0.485;exitDx=0;exitDy=0;exitPerimeter=0;entryX=0;entryY=0.5;entryDx=0;entryDy=0;" edge="1" parent="1" source="U2cvYLdAaLWoxU3sf1OA-68" target="wKJ1ekGVh0ovZ_IMOUga-12">
          <mxGeometry width="50" height="50" relative="1" as="geometry">
            <mxPoint x="1020" y="860" as="sourcePoint" />
            <mxPoint x="1070" y="810" as="targetPoint" />
            <Array as="points">
              <mxPoint x="1620" y="685" />
              <mxPoint x="1620" y="910" />
              <mxPoint x="1090" y="910" />
              <mxPoint x="1090" y="1020" />
              <mxPoint x="620" y="1020" />
              <mxPoint x="620" y="890" />
            </Array>
          </mxGeometry>
        </mxCell>
        <mxCell id="wKJ1ekGVh0ovZ_IMOUga-21" value="" style="endArrow=classic;html=1;rounded=0;exitX=1.025;exitY=0.587;exitDx=0;exitDy=0;exitPerimeter=0;entryX=-0.037;entryY=0.549;entryDx=0;entryDy=0;entryPerimeter=0;" edge="1" parent="1" source="U2cvYLdAaLWoxU3sf1OA-70" target="wKJ1ekGVh0ovZ_IMOUga-11">
          <mxGeometry width="50" height="50" relative="1" as="geometry">
            <mxPoint x="1140" y="920" as="sourcePoint" />
            <mxPoint x="1190" y="870" as="targetPoint" />
            <Array as="points">
              <mxPoint x="1600" y="750" />
              <mxPoint x="1600" y="890" />
              <mxPoint x="1070" y="890" />
              <mxPoint x="1070" y="1000" />
              <mxPoint x="640" y="1000" />
              <mxPoint x="640" y="981" />
            </Array>
          </mxGeometry>
        </mxCell>
        <mxCell id="wKJ1ekGVh0ovZ_IMOUga-22" value="" style="endArrow=classic;html=1;rounded=0;exitX=1.01;exitY=0.5;exitDx=0;exitDy=0;exitPerimeter=0;entryX=-0.021;entryY=0.542;entryDx=0;entryDy=0;entryPerimeter=0;" edge="1" parent="1" source="U2cvYLdAaLWoxU3sf1OA-69" target="wKJ1ekGVh0ovZ_IMOUga-9">
          <mxGeometry width="50" height="50" relative="1" as="geometry">
            <mxPoint x="1140" y="820" as="sourcePoint" />
            <mxPoint x="1190" y="770" as="targetPoint" />
            <Array as="points">
              <mxPoint x="1610" y="720" />
              <mxPoint x="1610" y="900" />
              <mxPoint x="1080" y="900" />
              <mxPoint x="1080" y="1010" />
              <mxPoint x="630" y="1010" />
              <mxPoint x="630" y="921" />
            </Array>
          </mxGeometry>
        </mxCell>
        <mxCell id="4AoaGfoRSB3ki615u3ol-62" value="" style="group" parent="1" vertex="1" connectable="0">
          <mxGeometry x="1640" y="920" width="710" height="470" as="geometry" />
        </mxCell>
        <mxCell id="4AoaGfoRSB3ki615u3ol-55" value="" style="rounded=0;whiteSpace=wrap;html=1;" parent="4AoaGfoRSB3ki615u3ol-62" vertex="1">
          <mxGeometry width="240" height="90" as="geometry" />
        </mxCell>
        <mxCell id="4AoaGfoRSB3ki615u3ol-56" value="clk" style="text;html=1;align=left;verticalAlign=middle;resizable=0;points=[];autosize=1;strokeColor=none;fillColor=none;" parent="4AoaGfoRSB3ki615u3ol-62" vertex="1">
          <mxGeometry width="40" height="30" as="geometry" />
        </mxCell>
        <mxCell id="4AoaGfoRSB3ki615u3ol-57" value="wen" style="text;html=1;align=left;verticalAlign=middle;resizable=0;points=[];autosize=1;strokeColor=none;fillColor=none;" parent="4AoaGfoRSB3ki615u3ol-62" vertex="1">
          <mxGeometry y="30" width="50" height="30" as="geometry" />
        </mxCell>
        <mxCell id="4AoaGfoRSB3ki615u3ol-58" value="data_in" style="text;html=1;align=left;verticalAlign=middle;resizable=0;points=[];autosize=1;strokeColor=none;fillColor=none;" parent="4AoaGfoRSB3ki615u3ol-62" vertex="1">
          <mxGeometry y="60" width="60" height="30" as="geometry" />
        </mxCell>
        <mxCell id="4AoaGfoRSB3ki615u3ol-59" value="data_out" style="text;html=1;align=right;verticalAlign=middle;resizable=0;points=[];autosize=1;strokeColor=none;fillColor=none;" parent="4AoaGfoRSB3ki615u3ol-62" vertex="1">
          <mxGeometry x="170" width="70" height="30" as="geometry" />
        </mxCell>
        <mxCell id="4AoaGfoRSB3ki615u3ol-60" value="o_rdy_to_fetch" style="text;html=1;align=right;verticalAlign=middle;resizable=0;points=[];autosize=1;strokeColor=none;fillColor=none;" parent="4AoaGfoRSB3ki615u3ol-62" vertex="1">
          <mxGeometry x="140" y="60" width="100" height="30" as="geometry" />
        </mxCell>
        <mxCell id="4AoaGfoRSB3ki615u3ol-61" value="tx_buffer" style="text;html=1;strokeColor=none;fillColor=none;align=center;verticalAlign=middle;whiteSpace=wrap;rounded=0;" parent="4AoaGfoRSB3ki615u3ol-62" vertex="1">
          <mxGeometry x="90" y="30" width="60" height="30" as="geometry" />
        </mxCell>
        <mxCell id="4AoaGfoRSB3ki615u3ol-73" value="clk" style="text;html=1;align=left;verticalAlign=middle;resizable=0;points=[];autosize=1;strokeColor=none;fillColor=none;" parent="1" vertex="1">
          <mxGeometry x="1810" y="1230" width="40" height="30" as="geometry" />
        </mxCell>
        <mxCell id="4AoaGfoRSB3ki615u3ol-74" value="w_ram_uploading" style="text;html=1;align=left;verticalAlign=middle;resizable=0;points=[];autosize=1;strokeColor=none;fillColor=none;" parent="1" vertex="1">
          <mxGeometry x="1810" y="1260" width="120" height="30" as="geometry" />
        </mxCell>
        <mxCell id="4AoaGfoRSB3ki615u3ol-75" value="w_tx_rdy_to_fetch" style="text;html=1;align=left;verticalAlign=middle;resizable=0;points=[];autosize=1;strokeColor=none;fillColor=none;" parent="1" vertex="1">
          <mxGeometry x="1810" y="1290" width="120" height="30" as="geometry" />
        </mxCell>
        <mxCell id="4AoaGfoRSB3ki615u3ol-79" value="s_tx_packet_done" style="text;html=1;align=right;verticalAlign=middle;resizable=0;points=[];autosize=1;strokeColor=none;fillColor=none;" parent="1" vertex="1">
          <mxGeometry x="1980" y="1340" width="120" height="30" as="geometry" />
        </mxCell>
        <mxCell id="4AoaGfoRSB3ki615u3ol-78" value="r_Tx_DV" style="text;html=1;align=right;verticalAlign=middle;resizable=0;points=[];autosize=1;strokeColor=none;fillColor=none;" parent="1" vertex="1">
          <mxGeometry x="2030" y="1230" width="70" height="30" as="geometry" />
        </mxCell>
        <mxCell id="4AoaGfoRSB3ki615u3ol-69" value="kombinatorik" style="rounded=0;whiteSpace=wrap;html=1;" parent="1" vertex="1">
          <mxGeometry x="2007" y="1010" width="120" height="30" as="geometry" />
        </mxCell>
        <mxCell id="wKJ1ekGVh0ovZ_IMOUga-23" value="" style="endArrow=classic;html=1;rounded=0;exitX=1.028;exitY=0.611;exitDx=0;exitDy=0;exitPerimeter=0;entryX=-0.005;entryY=0.602;entryDx=0;entryDy=0;entryPerimeter=0;" edge="1" parent="1" source="wKJ1ekGVh0ovZ_IMOUga-6" target="U2cvYLdAaLWoxU3sf1OA-56">
          <mxGeometry width="50" height="50" relative="1" as="geometry">
            <mxPoint x="1080" y="720" as="sourcePoint" />
            <mxPoint x="1130" y="670" as="targetPoint" />
            <Array as="points">
              <mxPoint x="1050" y="833" />
              <mxPoint x="1050" y="508" />
            </Array>
          </mxGeometry>
        </mxCell>
        <mxCell id="wKJ1ekGVh0ovZ_IMOUga-24" value="" style="endArrow=classic;html=1;rounded=0;exitX=1.006;exitY=0.617;exitDx=0;exitDy=0;exitPerimeter=0;entryX=-0.032;entryY=0.717;entryDx=0;entryDy=0;entryPerimeter=0;" edge="1" parent="1" source="wKJ1ekGVh0ovZ_IMOUga-7" target="U2cvYLdAaLWoxU3sf1OA-55">
          <mxGeometry width="50" height="50" relative="1" as="geometry">
            <mxPoint x="1030" y="850" as="sourcePoint" />
            <mxPoint x="1200" y="480" as="targetPoint" />
            <Array as="points">
              <mxPoint x="1060" y="864" />
              <mxPoint x="1060" y="480" />
            </Array>
          </mxGeometry>
        </mxCell>
        <mxCell id="wKJ1ekGVh0ovZ_IMOUga-25" value="" style="endArrow=classic;html=1;rounded=0;entryX=-0.02;entryY=0.589;entryDx=0;entryDy=0;entryPerimeter=0;" edge="1" parent="1" target="U2cvYLdAaLWoxU3sf1OA-57">
          <mxGeometry width="50" height="50" relative="1" as="geometry">
            <mxPoint x="160" y="700" as="sourcePoint" />
            <mxPoint x="850" y="660" as="targetPoint" />
            <Array as="points">
              <mxPoint x="1150" y="690" />
              <mxPoint x="1150" y="540" />
            </Array>
          </mxGeometry>
        </mxCell>
        <mxCell id="wKJ1ekGVh0ovZ_IMOUga-26" value="o_svnr_reset" style="text;html=1;align=center;verticalAlign=middle;resizable=0;points=[];autosize=1;strokeColor=none;fillColor=none;" vertex="1" parent="1">
          <mxGeometry x="2360" y="774" width="90" height="30" as="geometry" />
        </mxCell>
        <mxCell id="wKJ1ekGVh0ovZ_IMOUga-27" value="" style="rounded=0;whiteSpace=wrap;html=1;" vertex="1" parent="1">
          <mxGeometry x="1200" y="1360" width="240" height="90" as="geometry" />
        </mxCell>
        <mxCell id="wKJ1ekGVh0ovZ_IMOUga-28" value="i_run" style="text;html=1;align=left;verticalAlign=middle;resizable=0;points=[];autosize=1;strokeColor=none;fillColor=none;" vertex="1" parent="1">
          <mxGeometry x="1200" y="1360" width="50" height="30" as="geometry" />
        </mxCell>
        <mxCell id="wKJ1ekGVh0ovZ_IMOUga-29" value="i_cpu_step_fin" style="text;html=1;align=left;verticalAlign=middle;resizable=0;points=[];autosize=1;strokeColor=none;fillColor=none;" vertex="1" parent="1">
          <mxGeometry x="1200" y="1420" width="100" height="30" as="geometry" />
        </mxCell>
        <mxCell id="wKJ1ekGVh0ovZ_IMOUga-30" value="o_cpu_en" style="text;html=1;align=right;verticalAlign=middle;resizable=0;points=[];autosize=1;strokeColor=none;fillColor=none;" vertex="1" parent="1">
          <mxGeometry x="1360" y="1390" width="80" height="30" as="geometry" />
        </mxCell>
        <mxCell id="wKJ1ekGVh0ovZ_IMOUga-31" value="single_step" style="text;html=1;strokeColor=none;fillColor=none;align=center;verticalAlign=middle;whiteSpace=wrap;rounded=0;" vertex="1" parent="1">
          <mxGeometry x="1290" y="1390" width="60" height="30" as="geometry" />
        </mxCell>
        <mxCell id="wKJ1ekGVh0ovZ_IMOUga-32" value="" style="endArrow=classic;html=1;rounded=0;entryX=-0.049;entryY=0.624;entryDx=0;entryDy=0;entryPerimeter=0;" edge="1" parent="1" target="wKJ1ekGVh0ovZ_IMOUga-28">
          <mxGeometry width="50" height="50" relative="1" as="geometry">
            <mxPoint x="1120" y="890" as="sourcePoint" />
            <mxPoint x="1380" y="1160" as="targetPoint" />
            <Array as="points">
              <mxPoint x="1120" y="1380" />
            </Array>
          </mxGeometry>
        </mxCell>
        <mxCell id="wKJ1ekGVh0ovZ_IMOUga-33" value="" style="endArrow=classic;html=1;rounded=0;exitX=1.04;exitY=0.467;exitDx=0;exitDy=0;exitPerimeter=0;entryX=-0.025;entryY=0.5;entryDx=0;entryDy=0;entryPerimeter=0;" edge="1" parent="1" source="n0XynNMwgZ88w3417hK9-14" target="wKJ1ekGVh0ovZ_IMOUga-29">
          <mxGeometry width="50" height="50" relative="1" as="geometry">
            <mxPoint x="430" y="1000" as="sourcePoint" />
            <mxPoint x="480" y="950" as="targetPoint" />
            <Array as="points">
              <mxPoint x="150" y="504" />
              <mxPoint x="150" y="1440" />
            </Array>
          </mxGeometry>
        </mxCell>
        <mxCell id="wKJ1ekGVh0ovZ_IMOUga-34" value="" style="rounded=0;whiteSpace=wrap;html=1;" vertex="1" parent="1">
          <mxGeometry x="1530" y="1420" width="300" height="120" as="geometry" />
        </mxCell>
        <mxCell id="wKJ1ekGVh0ovZ_IMOUga-35" value="a" style="text;html=1;align=left;verticalAlign=middle;resizable=0;points=[];autosize=1;strokeColor=none;fillColor=none;" vertex="1" parent="1">
          <mxGeometry x="1530" y="1420" width="30" height="30" as="geometry" />
        </mxCell>
        <mxCell id="wKJ1ekGVh0ovZ_IMOUga-36" value="b" style="text;html=1;align=left;verticalAlign=middle;resizable=0;points=[];autosize=1;strokeColor=none;fillColor=none;" vertex="1" parent="1">
          <mxGeometry x="1530" y="1450" width="30" height="30" as="geometry" />
        </mxCell>
        <mxCell id="wKJ1ekGVh0ovZ_IMOUga-37" value="c" style="text;html=1;align=left;verticalAlign=middle;resizable=0;points=[];autosize=1;strokeColor=none;fillColor=none;" vertex="1" parent="1">
          <mxGeometry x="1530" y="1480" width="30" height="30" as="geometry" />
        </mxCell>
        <mxCell id="wKJ1ekGVh0ovZ_IMOUga-38" value="y" style="text;html=1;align=right;verticalAlign=middle;resizable=0;points=[];autosize=1;strokeColor=none;fillColor=none;" vertex="1" parent="1">
          <mxGeometry x="1800" y="1460" width="30" height="30" as="geometry" />
        </mxCell>
        <mxCell id="wKJ1ekGVh0ovZ_IMOUga-39" value="mux_4_1" style="text;html=1;strokeColor=none;fillColor=none;align=center;verticalAlign=middle;whiteSpace=wrap;rounded=0;" vertex="1" parent="1">
          <mxGeometry x="1650" y="1465" width="60" height="30" as="geometry" />
        </mxCell>
        <mxCell id="wKJ1ekGVh0ovZ_IMOUga-40" value="d" style="text;html=1;align=left;verticalAlign=middle;resizable=0;points=[];autosize=1;strokeColor=none;fillColor=none;" vertex="1" parent="1">
          <mxGeometry x="1530" y="1510" width="30" height="30" as="geometry" />
        </mxCell>
        <mxCell id="wKJ1ekGVh0ovZ_IMOUga-41" value="sel" style="text;html=1;align=left;verticalAlign=middle;resizable=0;points=[];autosize=1;strokeColor=none;fillColor=none;" vertex="1" parent="1">
          <mxGeometry x="1665" y="1510" width="40" height="30" as="geometry" />
        </mxCell>
        <mxCell id="wKJ1ekGVh0ovZ_IMOUga-42" value="" style="endArrow=classic;html=1;rounded=0;exitX=1.016;exitY=0.631;exitDx=0;exitDy=0;exitPerimeter=0;" edge="1" parent="1" source="wKJ1ekGVh0ovZ_IMOUga-30">
          <mxGeometry width="50" height="50" relative="1" as="geometry">
            <mxPoint x="1310" y="1260" as="sourcePoint" />
            <mxPoint x="1530" y="1465" as="targetPoint" />
            <Array as="points">
              <mxPoint x="1460" y="1410" />
              <mxPoint x="1460" y="1465" />
            </Array>
          </mxGeometry>
        </mxCell>
        <mxCell id="wKJ1ekGVh0ovZ_IMOUga-43" value="" style="endArrow=classic;html=1;rounded=0;entryX=-0.152;entryY=0.486;entryDx=0;entryDy=0;entryPerimeter=0;" edge="1" parent="1" target="wKJ1ekGVh0ovZ_IMOUga-37">
          <mxGeometry width="50" height="50" relative="1" as="geometry">
            <mxPoint x="1480" y="1590" as="sourcePoint" />
            <mxPoint x="1720" y="1440" as="targetPoint" />
            <Array as="points">
              <mxPoint x="1480" y="1495" />
            </Array>
          </mxGeometry>
        </mxCell>
        <mxCell id="wKJ1ekGVh0ovZ_IMOUga-44" value="&#39;1&#39;" style="text;html=1;strokeColor=none;fillColor=none;align=center;verticalAlign=middle;whiteSpace=wrap;rounded=0;" vertex="1" parent="1">
          <mxGeometry x="1470" y="1590" width="20" height="30" as="geometry" />
        </mxCell>
        <mxCell id="wKJ1ekGVh0ovZ_IMOUga-45" value="" style="endArrow=classic;html=1;rounded=0;entryX=-0.057;entryY=0.533;entryDx=0;entryDy=0;entryPerimeter=0;" edge="1" parent="1" target="wKJ1ekGVh0ovZ_IMOUga-40">
          <mxGeometry width="50" height="50" relative="1" as="geometry">
            <mxPoint x="1510" y="1590" as="sourcePoint" />
            <mxPoint x="1720" y="1530" as="targetPoint" />
            <Array as="points">
              <mxPoint x="1510" y="1526" />
            </Array>
          </mxGeometry>
        </mxCell>
        <mxCell id="wKJ1ekGVh0ovZ_IMOUga-46" value="&#39;0&#39;" style="text;html=1;strokeColor=none;fillColor=none;align=center;verticalAlign=middle;whiteSpace=wrap;rounded=0;" vertex="1" parent="1">
          <mxGeometry x="1500" y="1590" width="20" height="30" as="geometry" />
        </mxCell>
        <mxCell id="wKJ1ekGVh0ovZ_IMOUga-47" value="" style="endArrow=classic;html=1;rounded=0;exitX=0.996;exitY=0.47;exitDx=0;exitDy=0;exitPerimeter=0;entryX=-0.067;entryY=0.6;entryDx=0;entryDy=0;entryPerimeter=0;" edge="1" parent="1" source="wKJ1ekGVh0ovZ_IMOUga-5" target="wKJ1ekGVh0ovZ_IMOUga-35">
          <mxGeometry width="50" height="50" relative="1" as="geometry">
            <mxPoint x="1120" y="1170" as="sourcePoint" />
            <mxPoint x="1170" y="1120" as="targetPoint" />
            <Array as="points">
              <mxPoint x="1130" y="799" />
              <mxPoint x="1130" y="1340" />
              <mxPoint x="1480" y="1340" />
              <mxPoint x="1480" y="1440" />
            </Array>
          </mxGeometry>
        </mxCell>
        <mxCell id="wKJ1ekGVh0ovZ_IMOUga-48" value="process" style="rounded=0;whiteSpace=wrap;html=1;" vertex="1" parent="1">
          <mxGeometry x="2010" y="1480" width="270" height="120" as="geometry" />
        </mxCell>
        <mxCell id="wKJ1ekGVh0ovZ_IMOUga-49" value="s_cpu_run" style="text;html=1;strokeColor=none;fillColor=none;align=left;verticalAlign=middle;whiteSpace=wrap;rounded=0;" vertex="1" parent="1">
          <mxGeometry x="2010" y="1500" width="70" height="30" as="geometry" />
        </mxCell>
        <mxCell id="wKJ1ekGVh0ovZ_IMOUga-50" value="i_clk" style="text;html=1;strokeColor=none;fillColor=none;align=left;verticalAlign=middle;whiteSpace=wrap;rounded=0;" vertex="1" parent="1">
          <mxGeometry x="2010" y="1480" width="60" height="30" as="geometry" />
        </mxCell>
        <mxCell id="wKJ1ekGVh0ovZ_IMOUga-51" value="s_cpu_en_mux_out" style="text;html=1;strokeColor=none;fillColor=none;align=left;verticalAlign=middle;whiteSpace=wrap;rounded=0;" vertex="1" parent="1">
          <mxGeometry x="2010" y="1525" width="120" height="30" as="geometry" />
        </mxCell>
        <mxCell id="wKJ1ekGVh0ovZ_IMOUga-52" value="o_svnr_cpu_en" style="text;html=1;strokeColor=none;fillColor=none;align=right;verticalAlign=middle;whiteSpace=wrap;rounded=0;" vertex="1" parent="1">
          <mxGeometry x="2190" y="1480" width="90" height="30" as="geometry" />
        </mxCell>
        <mxCell id="wKJ1ekGVh0ovZ_IMOUga-53" value="" style="endArrow=classic;html=1;rounded=0;exitX=1.025;exitY=0.543;exitDx=0;exitDy=0;exitPerimeter=0;entryX=0;entryY=0.5;entryDx=0;entryDy=0;" edge="1" parent="1" source="wKJ1ekGVh0ovZ_IMOUga-38" target="wKJ1ekGVh0ovZ_IMOUga-51">
          <mxGeometry width="50" height="50" relative="1" as="geometry">
            <mxPoint x="1820" y="1440" as="sourcePoint" />
            <mxPoint x="1870" y="1390" as="targetPoint" />
            <Array as="points">
              <mxPoint x="1860" y="1480" />
              <mxPoint x="1860" y="1540" />
              <mxPoint x="1960" y="1540" />
            </Array>
          </mxGeometry>
        </mxCell>
        <mxCell id="wKJ1ekGVh0ovZ_IMOUga-54" value="" style="endArrow=classic;html=1;rounded=0;entryX=0;entryY=0.5;entryDx=0;entryDy=0;" edge="1" parent="1" target="wKJ1ekGVh0ovZ_IMOUga-49">
          <mxGeometry width="50" height="50" relative="1" as="geometry">
            <mxPoint x="1520" y="890" as="sourcePoint" />
            <mxPoint x="1700" y="1040" as="targetPoint" />
            <Array as="points">
              <mxPoint x="1520" y="1400" />
              <mxPoint x="1870" y="1400" />
              <mxPoint x="1870" y="1515" />
            </Array>
          </mxGeometry>
        </mxCell>
        <mxCell id="wKJ1ekGVh0ovZ_IMOUga-55" value="" style="endArrow=classic;html=1;rounded=0;entryX=0;entryY=0.5;entryDx=0;entryDy=0;" edge="1" parent="1" target="wKJ1ekGVh0ovZ_IMOUga-50">
          <mxGeometry width="50" height="50" relative="1" as="geometry">
            <mxPoint x="1770" y="1250" as="sourcePoint" />
            <mxPoint x="1770" y="1350" as="targetPoint" />
            <Array as="points">
              <mxPoint x="1770" y="1380" />
              <mxPoint x="1960" y="1380" />
              <mxPoint x="1960" y="1495" />
            </Array>
          </mxGeometry>
        </mxCell>
        <mxCell id="wKJ1ekGVh0ovZ_IMOUga-56" value="o_svnr_cpu_en" style="text;html=1;strokeColor=none;fillColor=none;align=right;verticalAlign=middle;whiteSpace=wrap;rounded=0;" vertex="1" parent="1">
          <mxGeometry x="2390" y="1480" width="90" height="30" as="geometry" />
        </mxCell>
        <mxCell id="wKJ1ekGVh0ovZ_IMOUga-57" value="" style="endArrow=classic;html=1;rounded=0;exitX=1;exitY=0.5;exitDx=0;exitDy=0;entryX=0;entryY=0.5;entryDx=0;entryDy=0;" edge="1" parent="1" source="wKJ1ekGVh0ovZ_IMOUga-52" target="wKJ1ekGVh0ovZ_IMOUga-56">
          <mxGeometry width="50" height="50" relative="1" as="geometry">
            <mxPoint x="2160" y="1470" as="sourcePoint" />
            <mxPoint x="2210" y="1420" as="targetPoint" />
          </mxGeometry>
        </mxCell>
        <mxCell id="wKJ1ekGVh0ovZ_IMOUga-58" value="" style="endArrow=classic;html=1;rounded=0;exitX=0.998;exitY=0.479;exitDx=0;exitDy=0;exitPerimeter=0;entryX=-0.006;entryY=0.174;entryDx=0;entryDy=0;entryPerimeter=0;" edge="1" parent="1" source="U2cvYLdAaLWoxU3sf1OA-71" target="wKJ1ekGVh0ovZ_IMOUga-26">
          <mxGeometry width="50" height="50" relative="1" as="geometry">
            <mxPoint x="1750" y="730" as="sourcePoint" />
            <mxPoint x="2360" y="790" as="targetPoint" />
          </mxGeometry>
        </mxCell>
        <mxCell id="wKJ1ekGVh0ovZ_IMOUga-59" value="w_TX_Done" style="text;html=1;strokeColor=none;fillColor=none;align=left;verticalAlign=middle;whiteSpace=wrap;rounded=0;" vertex="1" parent="1">
          <mxGeometry x="1810" y="1320" width="70" height="30" as="geometry" />
        </mxCell>
        <mxCell id="wKJ1ekGVh0ovZ_IMOUga-60" value="" style="endArrow=classic;html=1;rounded=0;exitX=1.043;exitY=0.451;exitDx=0;exitDy=0;exitPerimeter=0;entryX=0;entryY=0.5;entryDx=0;entryDy=0;" edge="1" parent="1" source="4AoaGfoRSB3ki615u3ol-39" target="wKJ1ekGVh0ovZ_IMOUga-59">
          <mxGeometry width="50" height="50" relative="1" as="geometry">
            <mxPoint x="2410" y="1090" as="sourcePoint" />
            <mxPoint x="1970" y="1220" as="targetPoint" />
            <Array as="points">
              <mxPoint x="2440" y="1020" />
              <mxPoint x="2440" y="1050" />
              <mxPoint x="1790" y="1050" />
              <mxPoint x="1790" y="1335" />
            </Array>
          </mxGeometry>
        </mxCell>
        <mxCell id="n0XynNMwgZ88w3417hK9-13" value="o_svnr_run" style="text;html=1;align=center;verticalAlign=middle;resizable=0;points=[];autosize=1;strokeColor=none;fillColor=none;" parent="1" vertex="1">
          <mxGeometry x="2360" y="690" width="80" height="30" as="geometry" />
        </mxCell>
        <mxCell id="wKJ1ekGVh0ovZ_IMOUga-61" value="" style="endArrow=classic;html=1;rounded=0;entryX=0.001;entryY=0.532;entryDx=0;entryDy=0;entryPerimeter=0;" edge="1" parent="1" target="n0XynNMwgZ88w3417hK9-13">
          <mxGeometry width="50" height="50" relative="1" as="geometry">
            <mxPoint x="1600" y="750" as="sourcePoint" />
            <mxPoint x="2010" y="920" as="targetPoint" />
            <Array as="points">
              <mxPoint x="2240" y="750" />
              <mxPoint x="2240" y="706" />
            </Array>
          </mxGeometry>
        </mxCell>
        <mxCell id="wKJ1ekGVh0ovZ_IMOUga-62" value="" style="endArrow=classic;html=1;rounded=0;entryX=0.358;entryY=1.03;entryDx=0;entryDy=0;entryPerimeter=0;" edge="1" parent="1" target="wKJ1ekGVh0ovZ_IMOUga-41">
          <mxGeometry width="50" height="50" relative="1" as="geometry">
            <mxPoint x="1679" y="1640" as="sourcePoint" />
            <mxPoint x="1750" y="1570" as="targetPoint" />
          </mxGeometry>
        </mxCell>
        <mxCell id="wKJ1ekGVh0ovZ_IMOUga-63" value="&quot;00&quot;" style="text;html=1;strokeColor=none;fillColor=none;align=center;verticalAlign=middle;whiteSpace=wrap;rounded=0;" vertex="1" parent="1">
          <mxGeometry x="1665" y="1640" width="30" height="30" as="geometry" />
        </mxCell>
      </root>
    </mxGraphModel>
  </diagram>
</mxfile>
